<?xml version="1.0" encoding="UTF-8" standalone="no"?>
<svg viewBox="0 0 508 142.875" xml:space="preserve" xmlns="http://www.w3.org/2000/svg"><path style="fill:#000;stroke-width:1.331" d="M336.575 123.609c-3.597-4.881-4.297-11.167-2.247-20.161 1.496-6.564 2.599-9.29 6.539-16.156l2.143-3.736-.429-8.895c-.8-16.587.413-43.948 2.5-56.407 1.659-9.906 6.413-19.574 9.626-19.574 2.744 0 5.497 2.73 7.993 7.924 3.976 8.277 4.093 14.598.518 28.173-3.682 13.984-8.228 25.047-11.657 28.37-1.318 1.278-1.847 1.137-2.605-.693-.38-.92-.21-1.41 2.098-6.017 7.243-14.457 10.517-23.953 11.64-33.758.618-5.394-.253-10.782-2.49-15.402-1.159-2.396-4.442-5.78-5.606-5.78-3.097 0-6.08 10.752-7.573 27.293-1.312 14.536-1.974 35.462-1.438 45.41l.266 4.91 1.104-1.867c2.404-4.06 5.811-9.062 6.807-9.99 1.199-1.119 1.825-1.02 2.677.422.58.982.565 1.062-.633 3.422-.675 1.33-3.12 5.05-5.433 8.269l-4.205 5.852.532 8.234c.725 11.23.519 21.842-.485 24.885-.4 1.217-1.161 2.779-1.69 3.471-1.368 1.795-3.88 3.298-5.512 3.298-1.166 0-1.479-.192-2.44-1.497zm5.816-3.17c1.52-2.37 2.025-8.318 1.608-18.913-.18-4.56-.423-9.149-.541-10.197l-.215-1.907-1.617 2.787c-3.062 5.28-5.424 14.053-5.491 20.395-.045 4.24.399 5.688 2.263 7.372 1.667 1.506 3.21 1.685 3.993.464zM570.98 80.16c-3.291-.507-7.53-2.24-8.731-3.57-.595-.658-.598-.77-.048-1.923l.584-1.225 1.757 1.182c2.823 1.9 6.01 2.697 10.067 2.52 5.375-.235 7.915-2.018 7.967-5.595.047-3.226-1.73-4.529-8.78-6.43-5.376-1.452-7.318-2.234-8.944-3.602-3.198-2.69-3.364-7.975-.353-11.241 3.364-3.65 10.684-4.642 16.947-2.299 3.025 1.132 3.27 1.399 2.71 2.949-.259.716-.635 1.228-.837 1.137-3.902-1.764-5.134-2.103-8.165-2.247-3.93-.186-6.149.44-7.876 2.221-1.007 1.04-1.205 1.525-1.331 3.267-.132 1.827-.045 2.167.811 3.186 1.33 1.58 2.237 1.98 8.179 3.613 5.888 1.618 8.19 2.719 9.744 4.659.937 1.17 1.095 1.681 1.207 3.903.112 2.206.003 2.804-.781 4.355-1.08 2.132-2.603 3.38-5.268 4.316-1.94.682-6.827 1.136-8.86.823zM243.646 65.061V50.096h-11.62v-3.17h26.804l-.108 1.497-.109 1.496-5.722.097-5.723.097v29.916H243.646zm20.778-1.584V46.926H267.579l.095 7.307.095 7.308 10.301.093 10.3.093V46.926H291.893V80.029h-3.521V64.886h-20.778V80.03h-3.169zm38.385 0V46.926h22.539v3.17h-19.369v11.62h17.256v2.806l-8.54.094-8.54.094-.096 6.075-.097 6.075h20.09v3.169H302.809zm73.954 0V46.926h3.17V80.03h-3.17zm14.087-.02V46.885l1.492.108 1.492.108 10.57 13.297 10.569 13.297.092-13.385.092-13.385h1.58c1.023 0 1.586.156 1.594.44.007.242.047 7.69.088 16.552l.075 16.111h-2.857l-10.545-13.331-10.545-13.332-.092 13.332-.092 13.331h-3.513zm38.385.02V46.926H432.757V80.03h-3.522zm14.439 0V46.926h2.715l6.747 11.56c3.71 6.358 6.96 11.852 7.22 12.208.54.74-.414 2.22 8.958-13.907l5.627-9.685 1.446-.108 1.446-.109V80.03h-3.169v-13.05c0-7.179-.134-12.969-.297-12.868-.164.101-3.125 5.03-6.581 10.955-5.751 9.858-6.357 10.762-7.151 10.666-.733-.089-1.858-1.79-7.242-10.957l-6.374-10.851-.092 13.052-.092 13.053h-3.161zm39.798 16.482c.002-.06 3.375-7.476 7.496-16.482l7.493-16.376 1.747-.099 1.748-.099 7.396 16.233c4.067 8.928 7.45 16.39 7.519 16.582.075.21-.603.307-1.708.242l-1.832-.108-1.942-4.314-1.943-4.314h-18.492l-1.924 4.314-1.924 4.314-1.819.107c-1 .058-1.817.058-1.815 0zm24.644-11.64c-.004-.204-7.666-17.207-7.823-17.364-.137-.137-5.416 11.269-7.547 16.307l-.484 1.145h7.929c4.36 0 7.927-.04 7.925-.088zm14.442-4.837V46.926h3.521v29.922l9.244.094 9.245.094v2.817l-11.005.093-11.005.093zm27.82-.006v-16.55h3.521V80.028h-3.52zm49.655 1.594V50.113l-5.723-.097-5.722-.097-.109-1.497-.108-1.496h26.805v3.169H603.555V80.03h-3.522z" transform="translate(-169.6 9.545)"/></svg>
