<?xml version="1.0" encoding="UTF-8" standalone="no"?>
<!-- Created with Inkscape (http://www.inkscape.org/) -->

<svg
   width="508mm"
   height="142.875mm"
   viewBox="0 0 508 142.875"
   version="1.1"
   id="svg1"
   xml:space="preserve"
   xmlns="http://www.w3.org/2000/svg"
   xmlns:svg="http://www.w3.org/2000/svg"><defs
     id="defs1" /><g
     id="layer1"
     transform="translate(-169.6005,9.5446168)"><path
       style="fill:#000000;stroke-width:1.331"
       d="m 336.57491,123.60898 c -3.59652,-4.88094 -4.29714,-11.16672 -2.2472,-20.16117 1.49605,-6.564124 2.59909,-9.28944 6.53902,-16.155949 l 2.14355,-3.735757 -0.42901,-8.894727 c -0.80002,-16.587495 0.41232,-43.948772 2.49934,-56.407797 1.65938,-9.9060203 6.41379,-19.5734999 9.62615,-19.5734999 2.74444,0 5.49754,2.7292026 7.99298,7.9236166 3.97662,8.2775283 4.09295,14.5987133 0.51852,28.1728233 -3.68249,13.984352 -8.22803,25.047135 -11.65718,28.370789 -1.31834,1.277786 -1.84686,1.137046 -2.60519,-0.693745 -0.38077,-0.919228 -0.20993,-1.409063 2.09843,-6.016998 7.24219,-14.456833 10.51636,-23.952679 11.63964,-33.757797 0.61796,-5.394171 -0.2528,-10.781832 -2.48931,-15.402265 -1.15934,-2.3950817 -4.44233,-5.7791357 -5.60654,-5.7791357 -3.09744,0 -6.08095,10.7516577 -7.57349,27.2924337 -1.31165,14.535864 -1.97395,35.462662 -1.43714,45.409278 l 0.26503,4.910818 1.10476,-1.866621 c 2.40327,-4.060588 5.8108,-9.062006 6.80694,-9.990898 1.1988,-1.117894 1.82517,-1.019081 2.67659,0.422246 0.58009,0.981999 0.56529,1.061965 -0.63293,3.42252 -0.67479,1.329363 -3.11945,5.050307 -5.43258,8.268757 l -4.20568,5.851729 0.53205,8.234684 c 0.72559,11.230305 0.51904,21.842035 -0.48436,24.885055 -0.40112,1.21649 -1.16138,2.77826 -1.68946,3.47061 -1.36923,1.79513 -3.88099,3.29771 -5.51262,3.29771 -1.16575,0 -1.47909,-0.19218 -2.44031,-1.49671 z m 5.81578,-3.16943 c 1.51945,-2.37142 2.02509,-8.31811 1.60823,-18.914 -0.17936,-4.559715 -0.42289,-9.14827 -0.54112,-10.196779 l -0.21498,-1.906405 -1.61647,2.786795 c -3.06209,5.279105 -5.42456,14.052509 -5.49182,20.394819 -0.045,4.24093 0.39929,5.68769 2.26377,7.37214 1.66703,1.50607 3.20961,1.68513 3.99239,0.46343 z M 570.9796,80.158127 c -3.29101,-0.506499 -7.52941,-2.238981 -8.73109,-3.568903 -0.59458,-0.658033 -0.59734,-0.77017 -0.0472,-1.923694 l 0.58412,-1.22492 1.75706,1.18242 c 2.8225,1.899404 6.00943,2.697258 10.06615,2.520076 5.37532,-0.234762 7.91546,-2.018408 7.96774,-5.594832 0.0471,-3.226464 -1.73091,-4.528966 -8.77947,-6.431192 -5.37739,-1.451229 -7.31929,-2.232925 -8.94479,-3.600715 -3.19786,-2.690815 -3.36363,-7.975232 -0.35264,-11.241762 3.36371,-3.649203 10.68329,-4.642035 16.94657,-2.298637 3.02531,1.131922 3.27062,1.398841 2.71006,2.949003 -0.25892,0.716091 -0.63555,1.227542 -0.8369,1.136567 -3.9025,-1.763295 -5.13445,-2.102181 -8.16523,-2.246088 -3.92973,-0.18658 -6.14901,0.43923 -7.87589,2.220919 -1.00739,1.039368 -1.20517,1.524692 -1.33116,3.266425 -0.13217,1.82689 -0.0453,2.167639 0.81154,3.186015 1.32932,1.579777 2.23681,1.980727 8.17826,3.613358 5.88812,1.617963 8.18965,2.718368 9.744,4.658766 0.93722,1.16999 1.0955,1.681519 1.20768,3.903371 0.11144,2.205334 0.003,2.804084 -0.78167,4.354327 -1.08062,2.132474 -2.60285,3.379848 -5.26752,4.316405 -1.94004,0.681872 -6.82713,1.13589 -8.85957,0.823091 z M 243.64648,65.062324 V 50.095505 h -5.81066 -5.81064 v -1.584728 -1.584715 h 13.40236 13.40234 l -0.10835,1.496683 -0.10835,1.496682 -5.7226,0.09677 -5.72262,0.09677 v 14.958088 14.958097 h -1.76079 -1.76081 z m 20.77747,-1.584728 V 46.926062 h 1.57757 1.57758 l 0.0951,7.307326 0.0952,7.307337 10.30069,0.0933 10.30069,0.0933 v -7.400693 -7.400683 h 1.7608 1.76082 v 16.551538 16.551545 h -1.76082 -1.7608 v -7.571448 -7.571446 h -10.38874 -10.38872 v 7.571446 7.571448 h -1.58473 -1.58472 z m 38.38548,0 V 46.926062 h 11.26914 11.26913 v 1.584715 1.584728 h -9.68443 -9.68439 v 5.810645 5.810653 h 8.62792 8.62793 v 1.402381 1.402382 l -8.53988,0.09437 -8.5399,0.09424 -0.0964,6.074763 -0.0964,6.074765 h 10.04491 10.04487 v 1.584728 1.584715 h -11.62128 -11.62131 z m 73.9537,0 V 46.926062 h 1.58471 1.58472 V 63.477596 80.02914 h -1.58472 -1.58471 z m 14.0864,-0.02023 V 46.885573 l 1.49236,0.108339 1.49238,0.108339 10.56912,13.296626 10.56913,13.296624 0.0922,-13.384669 0.0922,-13.384659 h 1.58053 c 1.0226,0 1.58522,0.155394 1.5938,0.440201 0.007,0.242109 0.0469,7.690296 0.088,16.551521 l 0.0748,16.111329 -1.42867,1.4e-5 -1.42866,1.3e-5 -10.54478,-13.331389 -10.54479,-13.331389 -0.0922,13.331389 -0.0922,13.331389 h -1.75663 -1.7566 z m 38.3855,0.02023 V 46.926062 h 1.76079 1.76081 V 63.477596 80.02914 h -1.76081 -1.76079 z m 14.43857,0 V 46.926062 h 1.3578 1.35784 l 6.74641,11.56019 c 3.71051,6.358108 6.95945,11.851544 7.21984,12.207666 0.54052,0.739211 -0.41322,2.219922 8.95803,-13.907366 l 5.62743,-9.684412 1.44611,-0.108339 1.4461,-0.108339 v 16.571792 16.571789 h -1.58473 -1.58471 v -13.05073 c 0,-7.177897 -0.13375,-12.968066 -0.29716,-12.867058 -0.16345,0.101024 -3.12483,5.030675 -6.58083,10.954796 -5.75101,9.858118 -6.3572,10.762227 -7.15121,10.666062 -0.73288,-0.08878 -1.85708,-1.789716 -7.24149,-10.956753 l -6.37391,-10.851669 -0.0923,13.052678 -0.0923,13.052665 h -1.58044 -1.58044 z m 39.79817,16.481906 c 0.002,-0.05856 3.37568,-7.475402 7.49656,-16.481906 l 7.49253,-16.375456 1.74763,-0.09889 1.74765,-0.09889 7.39537,16.232506 c 4.06745,8.927883 7.45114,16.389801 7.5193,16.582052 0.0748,0.21087 -0.60283,0.306822 -1.70775,0.241869 l -1.83171,-0.107679 -1.94256,-4.313971 -1.94256,-4.313957 h -9.24602 -9.24604 l -1.92396,4.313957 -1.92398,4.313971 -1.81926,0.10648 c -1.00058,0.05856 -1.81742,0.05856 -1.81521,0 z m 24.64468,-11.639689 c -0.004,-0.203602 -7.66678,-17.206984 -7.8232,-17.363404 -0.13727,-0.137252 -5.41585,11.268463 -7.54688,16.306924 l -0.48409,1.144513 h 7.92835 c 4.36056,0 7.9272,-0.03967 7.92582,-0.08798 z m 14.44108,-4.837199 V 46.926062 h 1.76081 1.76079 V 61.887038 76.84801 l 9.24421,0.09384 9.24421,0.09383 v 1.40865 1.408638 l -11.005,0.09304 -11.00502,0.09304 z m 27.82066,-0.0053 V 46.926062 h 1.76082 1.7608 V 63.477596 80.02914 h -1.7608 -1.76082 z m 49.65463,1.593447 V 50.112649 l -5.72261,-0.09677 -5.72261,-0.09677 -0.10824,-1.496683 -0.10824,-1.496684 h 13.40234 13.40236 v 1.584717 1.584728 h -5.81065 -5.81065 v 14.966825 14.966815 h -1.76081 -1.7608 z"
       id="path2" /></g></svg>
