<svg viewBox="0 0 100 100" xml:space="preserve" xmlns="http://www.w3.org/2000/svg"><circle style="fill:#fff;fill-opacity:1;stroke:#000;stroke-width:0;stroke-dasharray:none" cx="50" cy="50" r="50"/><path style="fill:#000;stroke-width:.711632" d="M43.933 94.236c-.874-.919-1.66-2.425-2.257-4.326-.387-1.233-.44-1.765-.428-4.324.028-6.03 1.777-11.603 5.64-17.982l1.256-2.07-.243-4.425c-.75-13.665.302-35.818 2.102-44.248C51.4 10.312 54.378 5.003 56.653 5c.857-.001 2.149.753 3.13 1.826 1.646 1.8 3.814 6.665 4.343 9.742.628 3.654-.414 10.036-3.121 19.103-2.21 7.402-5.022 13.538-7.003 15.276-.61.537-.688.559-.992.283-.181-.164-.478-.574-.66-.912 0 0-.331-.523-.293-.765.038-.242 1.863-3.648 1.863-3.648 5.936-11.861 8.324-19.438 8.35-26.502.01-2.502-.518-5.126-1.534-7.622-.861-2.117-2.925-4.536-4.127-4.838-1.434-.36-2.61 1.83-3.965 7.376-1.194 4.89-1.873 11.105-2.581 23.63-.475 8.394-.418 24.108.087 24.099.068-.002.5-.658.963-1.46.462-.8 1.582-2.57 2.49-3.93 1.59-2.386 2.541-3.457 3.069-3.457.37 0 1.226 1.094 1.226 1.567-.001.875-1.68 3.554-5.849 9.332-1.954 2.709-1.807 1.815-1.382 8.432.36 5.599.423 13.779.118 15.472a25.54 25.54 0 0 1-.636 2.542c-.36 1.152-.59 1.518-1.59 2.523C47.383 94.254 46.063 95 45.145 95c-.321 0-.73-.257-1.211-.764Zm3.131-1.99c.416-.16.983-1.32 1.342-2.747.437-1.741.552-7.63.266-13.698-.133-2.844-.299-5.381-.368-5.638-.116-.436-.17-.392-.799.652-1.124 1.867-1.804 3.346-2.488 5.414-1.655 4.998-2.35 11.161-1.514 13.405.272.728 1.085 1.645 1.936 2.185.893.566 1.113.624 1.625.428zm5.804-7.332c.003-.382-.015-.803.731-.926a44.653 44.653 0 0 0 1.804-.356c7.593-1.125 13.375-4.388 18.697-9.71 5.338-5.338 8.6-11.863 9.7-19.403.46-3.164.292-8.477-.368-11.593-1.775-8.382-6.319-15.466-13.222-20.612-.817-.609-1.996-1.356-2.58-1.727-1.195-.757-1.06-.678-1.193-1.984-.066-.647-.05-1.177.036-1.177.361 0 2.193 1.079 3.852 2.216 8.991 6.165 14.466 15.178 15.807 26.022.29 2.341.241 6.906-.097 9.207-1.66 11.288-8.322 21.046-18.177 26.62-4.303 2.435-8.341 3.964-13.585 4.576 0 0 .146-.037-.701.072-.847.11-.707-.843-.704-1.225zm-14.27-.495c-12.05-4.16-20.894-13.686-23.916-25.758-.849-3.389-1.08-5.744-.983-9.972.094-4.078.358-5.873 1.348-9.182 4.1-13.69 15.684-23.669 29.883-25.743 2.257-.33 3.053-.197 3.32-.188.692.024.687.575.542 1.084-.144.508-.197.926-.82 1.01-.623.084-1.562.22-1.562.22-2.357.23-6.335 1.159-8.564 1.999-1.958.738-5.81 2.802-7.504 4.02-7.263 5.223-12.113 12.62-13.883 21.17-.768 3.713-.763 9.516.011 13.322 1.964 9.66 7.761 17.825 16.225 22.856 1.715 1.02 5.481 2.734 6.606 3.008.49.12.509.166.407 1.017-.178 1.503-.147 1.47-1.11 1.137z"/></svg>
