<?xml version="1.0" encoding="UTF-8" standalone="no"?>
<!-- Created with Inkscape (http://www.inkscape.org/) -->

<svg
   width="100mm"
   height="100mm"
   viewBox="0 0 100 100"
   version="1.1"
   id="svg1"
   xml:space="preserve"
   xmlns="http://www.w3.org/2000/svg"
   xmlns:svg="http://www.w3.org/2000/svg"><defs
     id="defs1" /><g
     id="layer1"><circle
       style="fill:#ffffff;fill-opacity:1;stroke:#000000;stroke-width:0;stroke-dasharray:none"
       id="path3"
       cx="50"
       cy="50"
       r="50" /><path
       style="fill:#000000;stroke-width:0.711632"
       d="M 43.932934,94.236035 C 43.058936,93.317283 42.272938,91.810544 41.676036,89.909647 41.288972,88.677008 41.236353,88.14517 41.248231,85.5857 41.276203,79.556294 43.024585,73.982835 46.8889,67.604384 l 1.254778,-2.071141 -0.242966,-4.424721 c -0.750324,-13.664167 0.302046,-35.817479 2.101905,-44.247208 1.398372,-6.549313 4.375277,-11.8583655 6.650906,-11.8613117 0.856769,-0.00142 2.148267,0.7526007 3.129743,1.826489 1.645407,1.8003438 3.813949,6.6644127 4.342955,9.7413177 0.628179,3.653724 -0.414704,10.036153 -3.121417,19.103149 -2.209653,7.401912 -5.022151,13.537553 -7.002452,15.276284 -0.610958,0.536429 -0.688013,0.558418 -0.9922,0.28313 -0.181388,-0.164152 -0.478609,-0.574792 -0.660494,-0.912532 0,0 -0.330885,-0.523147 -0.293012,-0.764832 0.03787,-0.241686 1.863562,-3.648127 1.863562,-3.648127 5.93615,-11.860977 8.323718,-19.438307 8.350532,-26.501702 0.0095,-2.502611 -0.518616,-5.125993 -1.534442,-7.622163 C 59.874903,9.6643163 57.81058,7.2447032 56.60874,6.9430637 55.175491,6.5833409 53.998438,8.7734384 52.644338,14.319458 c -1.194005,4.890292 -1.872966,11.104518 -2.581794,23.629889 -0.474986,8.393245 -0.417636,24.107873 0.08795,24.098294 0.06703,-0.0014 0.500141,-0.657918 0.962404,-1.459216 0.462261,-0.801298 1.582455,-2.569959 2.489317,-3.930357 1.590703,-2.386231 2.541835,-3.457557 3.069638,-3.457557 0.37059,0 1.226214,1.094391 1.225744,1.567803 -7.12e-4,0.874718 -1.680013,3.554005 -5.848291,9.331652 -1.954263,2.708792 -1.807759,1.814875 -1.381926,8.432321 0.360264,5.598387 0.422503,13.778424 0.117718,15.471645 -0.118245,0.6569 -0.404534,1.800735 -0.636205,2.541858 -0.360087,1.151932 -0.590741,1.518081 -1.58926,2.522913 C 47.38189,94.253883 46.062304,95 45.143935,95 44.822754,95 44.414936,94.742732 43.932934,94.236035 Z m 3.131248,-1.989403 c 0.416191,-0.159711 0.983254,-1.321273 1.341582,-2.748066 0.43712,-1.74056 0.5518,-7.630308 0.266706,-13.697206 -0.133659,-2.844236 -0.299255,-5.381617 -0.367992,-5.638637 -0.116587,-0.435924 -0.170244,-0.392117 -0.799198,0.652474 -1.123816,1.86649 -1.80391,3.346086 -2.488477,5.413896 -1.654484,4.99753 -2.350304,11.161028 -1.513324,13.404762 0.27148,0.72775 1.084206,1.645498 1.935057,2.185086 0.893212,0.566459 1.113192,0.624337 1.625646,0.427691 z m 5.80397,-7.332813 c 0.0029,-0.382018 -0.01516,-0.802493 0.731117,-0.926164 0.746295,-0.123668 1.803945,-0.35519 1.803945,-0.35519 7.592316,-1.125475 13.374604,-4.388407 18.697042,-9.710838 5.337945,-5.337952 8.59944,-11.862784 9.698804,-19.403117 0.461287,-3.163873 0.293214,-8.476263 -0.366775,-11.59267 -1.77513,-8.381972 -6.319271,-15.465586 -13.222386,-20.611646 -0.816996,-0.60905 -1.995694,-1.356555 -2.579993,-1.72676 -1.194838,-0.757027 -1.060111,-0.678292 -1.19298,-1.984471 -0.06583,-0.64723 -0.0496,-1.176784 0.03608,-1.176784 0.361161,0 2.193065,1.07882 3.851858,2.216058 8.991336,6.164313 14.46663,15.177836 15.807078,26.021892 0.289414,2.34129 0.24135,6.905442 -0.09695,9.206789 -1.659389,11.288327 -8.322226,21.046082 -18.177311,26.620766 -4.30299,2.434059 -8.340712,3.96306 -13.584202,4.575762 0,0 0.145081,-0.03743 -0.701455,0.07205 -0.846537,0.109464 -0.706579,-0.843654 -0.703876,-1.22568 z M 38.59869,84.419491 C 26.548426,80.258361 17.704202,70.733067 14.68179,58.660806 c -0.848392,-3.388691 -1.080566,-5.74398 -0.98297,-9.971764 0.09413,-4.077602 0.35784,-5.873149 1.348566,-9.181989 4.098875,-13.68948 15.68335,-23.668881 29.883045,-25.742633 2.257012,-0.329614 3.052511,-0.197535 3.319899,-0.188384 0.691337,0.02363 0.686255,0.575405 0.541837,1.083852 -0.144426,0.508454 -0.197478,0.925947 -0.82032,1.010033 -0.622856,0.08409 -1.562082,0.219617 -1.562082,0.219617 -2.356893,0.230632 -6.335101,1.159512 -8.563384,1.99948 -1.958576,0.738297 -5.810333,2.801588 -7.504331,4.019873 -7.263002,5.223408 -12.113085,12.619819 -13.882575,21.171017 -0.768207,3.712414 -0.76364,9.514734 0.01048,13.321467 1.964261,9.659194 7.761116,17.825044 16.225076,22.855763 1.714755,1.0192 5.481032,2.734118 6.605767,3.007841 0.490243,0.119305 0.508952,0.165974 0.407651,1.016808 -0.178947,1.502914 -0.146994,1.470157 -1.109768,1.137704 z"
       id="path1" /></g></svg>
