<?xml version="1.0" encoding="UTF-8" standalone="no"?>
<!-- Created with Inkscape (http://www.inkscape.org/) -->

<svg
   width="508mm"
   height="142.875mm"
   viewBox="0 0 508 142.875"
   version="1.1"
   id="svg1"
   xml:space="preserve"
   xmlns="http://www.w3.org/2000/svg"
   xmlns:svg="http://www.w3.org/2000/svg"><defs
     id="defs1" /><g
     id="layer1"
     transform="translate(-169.6005,9.5446168)"><path
       style="fill:#000000"
       d="m 358.21696,108.26111 c -2.70211,-3.66713 -3.2285,-8.389726 -1.68835,-15.147396 1.124,-4.93172 1.95274,-6.97929 4.91286,-12.1382 l 1.61048,-2.80673 -0.32232,-6.68274 c -0.60107,-12.46243 0.30978,-33.019363 1.87779,-42.380013 1.24672,-7.44254 4.81878,-14.70586 7.23227,-14.70586 2.06194,0 4.13038,2.05049 6.00525,5.95313 2.98769,6.21903 3.0751,10.96823 0.38956,21.16666 -2.7667,10.50665 -6.18183,18.818283 -8.7582,21.315393 -0.99049,0.96002 -1.38758,0.85428 -1.95733,-0.52122 -0.28607,-0.69063 -0.15772,-1.05865 1.57659,-4.52066 5.44117,-10.861633 7.90109,-17.996003 8.74503,-25.362733 0.46428,-4.05272 -0.18993,-8.10055 -1.87025,-11.57195 -0.87103,-1.79946 -3.33759,-4.34195 -4.21229,-4.34195 -2.32714,0 -4.5687,8.07788 -5.69007,20.50521 -0.98546,10.92101 -1.48305,26.643623 -1.07974,34.116663 l 0.19912,3.68957 0.83003,-1.40242 c 1.80561,-3.05078 4.36574,-6.80842 5.11415,-7.50631 0.90068,-0.83989 1.37128,-0.76565 2.01096,0.31724 0.43583,0.73779 0.42472,0.79787 -0.47553,2.57139 -0.50698,0.99877 -2.34369,3.79437 -4.08157,6.21244 l -3.1598,4.39649 0.39974,6.18684 c 0.54515,8.43749 0.38997,16.410246 -0.3639,18.696506 -0.30138,0.91397 -0.87257,2.08735 -1.26932,2.60752 -1.02872,1.34871 -2.91585,2.47762 -4.14172,2.47762 -0.87584,0 -1.11126,-0.14439 -1.83344,-1.12449 z m 4.36949,-2.38125 c 1.14159,-1.78168 1.52148,-6.249516 1.20829,-14.210366 -0.13477,-3.42578 -0.31773,-6.87323 -0.40656,-7.66099 l -0.16152,-1.43231 -1.21447,2.09376 c -2.3006,3.96627 -4.07555,10.55785 -4.12609,15.32293 -0.0338,3.186266 0.29999,4.273246 1.7008,5.538796 1.25247,1.13153 2.41143,1.26606 2.99955,0.34818 z M 534.32867,75.615834 c -2.47258,-0.38054 -5.65695,-1.68218 -6.55979,-2.68137 -0.44672,-0.49439 -0.44879,-0.57864 -0.0355,-1.4453 l 0.43886,-0.9203 1.32011,0.88837 c 2.12058,1.42705 4.51497,2.02649 7.56284,1.89337 4.03856,-0.17638 5.947,-1.51646 5.98628,-4.20348 0.0354,-2.42409 -1.30046,-3.40268 -6.59614,-4.83185 -4.04012,-1.09033 -5.49909,-1.67763 -6.72036,-2.70527 -2.4026,-2.02165 -2.52714,-5.99191 -0.26494,-8.446103 2.52721,-2.7417 8.02651,-3.48763 12.73221,-1.727 2.27296,0.85043 2.45726,1.05097 2.03611,2.21563 -0.19454,0.53801 -0.4775,0.92227 -0.62878,0.85392 -2.93201,-1.32479 -3.85759,-1.5794 -6.13466,-1.68752 -2.95246,-0.14018 -4.61984,0.33 -5.91727,1.66861 -0.75687,0.780893 -0.90547,1.145523 -1.00012,2.454113 -0.0993,1.37257 -0.0341,1.62858 0.60973,2.3937 0.99873,1.18691 1.68054,1.48815 6.14444,2.71477 4.42384,1.2156 6.15301,2.04235 7.32081,3.5002 0.70415,0.87903 0.82306,1.26335 0.90735,2.93266 0.0837,1.6569 0.003,2.10675 -0.58729,3.27147 -0.81188,1.60216 -1.95555,2.53933 -3.95756,3.24298 -1.45757,0.5123 -5.12932,0.85341 -6.65633,0.6184 z M 288.39846,64.274134 V 53.029341 h -4.36563 -4.36562 v -1.19063 -1.19062 h 10.06938 10.06938 l -0.0814,1.12448 -0.0814,1.12448 -4.29948,0.0727 -4.29948,0.0727 v 11.238233 11.23824 h -1.32291 -1.32292 z m 15.61042,-1.19063 V 50.648091 h 1.18525 1.18526 l 0.0715,5.490103 0.0715,5.49011 7.73906,0.0701 7.73906,0.0701 v -5.56025 -5.560243 h 1.32292 1.32292 v 12.435413 12.43542 h -1.32292 -1.32292 v -5.68854 -5.68854 h -7.80521 -7.8052 v 5.68854 5.68854 h -1.19063 -1.19062 z m 28.83958,0 V 50.648091 h 8.46667 8.46666 v 1.19062 1.19063 h -7.27604 -7.27604 v 4.365623 4.36563 h 6.48229 6.48229 v 1.05363 1.05363 l -6.41614,0.0709 -6.41615,0.0708 -0.0724,4.56406 -0.0724,4.56406 h 7.54688 7.54687 v 1.19063 1.19062 h -8.73125 -8.73125 z m 55.5625,0 V 50.648091 h 1.19062 1.19063 v 12.435413 12.43542 h -1.19063 -1.19062 z m 10.58333,-0.0152 V 50.617671 l 1.12123,0.0814 1.12124,0.0814 7.94074,9.989953 7.94075,9.98995 0.0693,-10.0561 0.0693,-10.056093 h 1.18748 c 0.76829,0 1.191,0.11675 1.19744,0.33073 0.005,0.1819 0.0352,5.777833 0.0661,12.435403 l 0.0562,12.10468 -1.07338,10e-6 -1.07338,1e-5 -7.92245,-10.01607 -7.92245,-10.01607 -0.0693,10.01607 -0.0693,10.01607 h -1.31978 -1.31977 z m 28.83959,0.0152 V 50.648091 h 1.32291 1.32292 v 12.435413 12.43542 h -1.32292 -1.32291 z m 10.84791,0 V 50.648091 h 1.02015 1.02016 l 5.06867,8.685343 c 2.78777,4.77694 5.22874,8.90424 5.42438,9.1718 0.4061,0.55538 -0.31047,1.66786 6.7303,-10.44881 l 4.22797,-7.276043 1.08648,-0.0814 1.08648,-0.0814 v 12.450633 12.45063 h -1.19063 -1.19062 v -9.8052 c 0,-5.39286 -0.10048,-9.7431 -0.22327,-9.66721 -0.1228,0.0759 -2.34772,3.77962 -4.94427,8.2305 -4.32082,7.40655 -4.77625,8.08582 -5.37281,8.01357 -0.55062,-0.0667 -1.39524,-1.34464 -5.44063,-8.23197 l -4.78882,-8.15302 -0.0694,9.80667 -0.0694,9.80666 h -1.1874 -1.18741 z m 29.90096,12.3831 c 0.002,-0.044 2.5362,-5.61638 5.63228,-12.3831 l 5.62924,-12.303123 1.31303,-0.0743 1.31303,-0.0743 5.55625,12.195723 c 3.05594,6.70765 5.59816,12.3139 5.64937,12.45834 0.0562,0.15843 -0.45292,0.23052 -1.28307,0.18172 l -1.37619,-0.0809 -1.45947,-3.24115 -1.45947,-3.24114 h -6.94668 -6.94668 l -1.44551,3.24114 -1.44551,3.24115 -1.36683,0.08 c -0.75176,0.044 -1.36546,0.044 -1.36379,0 z m 18.51591,-8.74507 c -0.004,-0.15297 -5.76017,-12.927863 -5.87769,-13.045383 -0.10312,-0.10312 -4.06901,8.466163 -5.67008,12.251633 l -0.3637,0.85989 h 5.95668 c 3.27617,0 5.95583,-0.0298 5.95479,-0.0661 z m 10.8498,-3.63426 V 50.648091 h 1.32292 1.32291 v 11.240403 11.2404 l 6.94531,0.0705 6.94532,0.0705 v 1.05834 1.05833 l -8.26823,0.0699 -8.26823,0.0699 z m 20.90208,-0.004 V 50.648091 h 1.32292 1.32292 v 12.435413 12.43542 h -1.32292 -1.32292 z m 37.30625,1.19718 V 53.042221 l -4.29948,-0.0727 -4.29948,-0.0727 -0.0814,-1.12448 -0.0814,-1.12448 h 10.06938 10.06938 v 1.19062 1.19063 h -4.36563 -4.36562 v 11.244793 11.24479 h -1.32292 -1.32292 z"
       id="path2" /></g></svg>
