<?xml version="1.0" encoding="UTF-8" standalone="no"?>
<!-- Created with Inkscape (http://www.inkscape.org/) -->

<svg
   width="640mm"
   height="160mm"
   viewBox="0 0 640 160"
   version="1.1"
   id="svg1"
   xml:space="preserve"
   xmlns="http://www.w3.org/2000/svg"
   xmlns:svg="http://www.w3.org/2000/svg"><defs
     id="defs1" /><g
     id="layer1"
     style="display:inline"
     transform="translate(-692.87589,420.27668)"><g
       id="g250"
       style="fill:#121212;fill-opacity:1;stroke-width:0;stroke-dasharray:none"
       transform="translate(14.99989,29.999962)"><path
         d="m 802.86469,-400.23707 v 24.91062 H 782.8778 v -24.90132 h -10.00404 v 59.801 h 10.00404 v -24.80004 h 19.98689 v 24.91063 h 10.02264 v -59.92089 z"
         style="display:inline;fill:#121212;fill-opacity:1;stroke:#000000;stroke-width:0;stroke-dasharray:none"
         id="path142" /><path
         d="m 742.8761,-400.27686 c -3.99466,0.0352 -11.48325,0.95158 -18.47794,6.45335 l 6.17017,7.8419 c 2.16292,-1.68079 4.6481,-2.89937 7.30136,-3.58014 v 48.81975 c 1.47281,0.25274 2.96255,0.39508 4.45658,0.42582 h 1.09967 c 1.49385,-0.0308 2.98342,-0.17311 4.45606,-0.42582 v -49.4347 h 14.99443 v -10.10016 z"
         style="display:inline;fill:#121212;fill-opacity:1;stroke:#000000;stroke-width:0;stroke-dasharray:none"
         id="path168" /><path
         d="m 842.86948,-400.27635 c -11.04896,3e-5 -20.00648,8.95454 -20.00653,19.99982 0.004,0.0548 0.008,0.10957 0.0129,0.16433 v 19.83548 c 10e-5,11.04537 8.95444,19.99971 19.99981,19.99981 10.56022,-0.0583 19.96379,-8.61414 20.00033,-19.99981 h -9.9999 c -5e-5,5.52289 -4.47754,10.00014 -10.00043,9.99991 -5.52268,-6e-5 -9.99985,-4.47722 -9.9999,-9.99991 v -4.9997 h 15.00012 v -10.00042 h -15.00012 v -4.99969 c 5e-5,-5.52262 4.47728,-9.99986 9.9999,-9.99991 5.52283,-2.3e-4 10.00038,4.47709 10.00043,9.99991 h 9.9999 c -0.005,-11.3114 -9.29309,-19.99208 -20.00653,-19.99982 z"
         style="fill:#121212;fill-opacity:1;stroke:#000000;stroke-width:0;stroke-dasharray:none"
         id="path167" /><path
         d="m 742.8761,-420.27668 c -27.61338,-2e-5 -50.00007,22.38667 -50.00005,50.00005 -2e-5,27.61341 22.38667,50.00008 50.00005,50.00005 h 509.9999 c 27.6136,3e-5 50.0001,-22.38634 50,-50.00005 10e-5,-27.61369 -22.3864,-50.00007 -50,-50.00005 H 922.87598 c -18.38497,-10e-6 -34.40917,9.95282 -43.09556,24.73545 -4.36029,7.42038 -6.9045,16.03596 -6.90449,25.2646 v 29.99972 h 9.99991 v -0.21239 -24.78712 l 15.00011,-5.1e-4 v -9.99991 h -14.60686 c 2.513,-19.99702 19.4774,-35.00965 39.60689,-35.05006 110.00002,0.0103 220.00002,0.0501 330.00002,0.0501 22.091,-8e-5 40.0002,17.90911 40.0001,40.00014 10e-5,22.09104 -17.9091,40.00022 -40.0001,40.00015 H 742.87611 c -22.09078,7e-5 -40.00022,-17.90935 -40.00014,-40.00015 -8e-5,-22.09078 17.90936,-40.00022 40.00014,-40.00014 h 99.99958 c 10.71243,3.9e-4 20.61198,5.71302 25.97258,14.98772 1.55796,-3.34832 3.42177,-6.54573 5.56762,-9.55136 -7.57212,-9.7317 -19.20963,-15.42729 -31.5402,-15.43627 -0.0398,5.9e-4 -0.0796,0.002 -0.11937,0.003 h -99.80786 z"
         style="fill:#121212;fill-opacity:1;stroke:#000000;stroke-width:0;stroke-dasharray:none"
         id="path244" /><path
         d="m 947.87569,-400.27686 c -11.04569,10e-5 -20,8.95464 -19.99981,20.00033 v 39.99962 h 9.9999 v -39.99962 c 5e-5,-5.52274 4.47717,-9.99986 9.99991,-9.99991 5.52294,-2.3e-4 10.00037,4.47696 10.00042,9.99991 v 39.99962 h 9.99991 v -39.99962 c 1.8e-4,-11.04589 -8.95445,-20.00051 -20.00033,-20.00033 z"
         style="fill:#121212;fill-opacity:1;stroke:#000000;stroke-width:0;stroke-dasharray:none"
         id="path202" /><path
         id="rect202"
         style="stroke:#000000"
         d="m 977.87592,-400.27667 h 9.96211 v 60.04977 h -9.96211 z" /><path
         d="m 1017.8254,-400.32647 c -11.0732,0 -20.0502,8.96547 -20.0504,20.02462 0.23594,13.32905 0.1007,26.68712 0.1007,40.02494 h 10.0005 v -39.99962 c 0,-5.52268 4.4772,-9.99986 9.9999,-9.99991 5.5226,5e-5 9.9998,4.47723 9.9999,9.99991 v 39.99962 h 9.9999 v -39.99962 c 0,-5.52274 4.4771,-9.99986 9.9999,-9.99991 5.5227,5e-5 9.9998,4.47717 9.9999,9.99991 v 39.99962 h 9.9999 v -39.99962 c 2e-4,-11.04569 -8.9541,-20.00023 -19.9998,-20.00033 -5.7331,0.0142 -11.1845,2.48798 -14.9702,6.79338 -3.8043,-4.3449 -9.301,-6.83917 -15.0802,-6.84299 z"
         style="fill:#121212;fill-opacity:1;stroke:#000000;stroke-width:0;stroke-dasharray:none"
         id="path208" /><path
         d="m 1097.8758,-400.27686 c -11.0455,10e-5 -20,8.9548 -19.9998,20.00033 v 39.99962 h 9.9999 v -19.99981 h 19.9998 v 19.99981 h 10.0005 v -39.99962 h -6e-4 c 2e-4,-11.04553 -8.9542,-20.00023 -19.9998,-20.00033 z m 0,10.00042 c 5.5227,5e-5 9.9999,4.47724 9.9999,9.99991 v 9.9999 h -19.9998 v -9.9999 c 10e-5,-5.52267 4.4773,-9.99986 9.9999,-9.99991 z"
         style="fill:#121212;fill-opacity:1;stroke:#000000;stroke-width:0;stroke-dasharray:none"
         id="path216" /><path
         d="m 1127.8761,-400.27686 v 40.02494 c 0.058,10.69954 8.8071,19.6022 19.8587,19.97501 h 5.1413 v -9.9999 c -7.5448,0.24392 -14.2429,-0.61573 -15.0001,-9.99991 v -40.00014 z"
         style="fill:#121212;fill-opacity:1;stroke:#000000;stroke-width:0;stroke-dasharray:none"
         id="path218" /><path
         id="rect219"
         style="baseline-shift:baseline;display:inline;overflow:visible;vector-effect:none;enable-background:accumulate;stop-color:#000000;stop-opacity:1"
         d="m 1162.8759,-400.27667 h 10 v 60 h -10 z" /><path
         d="m 1202.8759,-400.27686 c -11.0456,9e-5 -19.9999,7.83529 -19.9998,17.50022 0.01,4.70605 2.1779,9.21177 6.0255,12.50001 3.7326,3.20018 8.7486,4.99496 13.9743,5.00021 5.5227,4e-5 9.9998,3.35779 9.9999,7.49981 -10e-5,4.14201 -4.4772,7.49976 -9.9999,7.4998 -5.5227,-4e-5 -9.9997,-3.35779 -9.9999,-7.4998 h -9.9999 c 0.1234,8.54651 7.8059,17.47233 19.9998,17.4997 11.0455,-9e-5 19.9997,-7.83494 19.9998,-17.4997 0,-4.70717 -2.1708,-9.21525 -6.0172,-12.50622 -3.7358,-3.19966 -8.7549,-4.9923 -13.9826,-4.99401 -5.5226,-4e-5 -9.9997,-3.3578 -9.9999,-7.4998 2e-4,-4.142 4.4773,-7.49976 9.9999,-7.4998 5.5227,4e-5 9.9998,3.3578 9.9999,7.4998 h 9.9999 c 0,-8.45253 -7.731,-17.4962 -19.9998,-17.50022 z"
         style="fill:#121212;fill-opacity:1;stroke:#000000;stroke-width:0;stroke-dasharray:none"
         id="path230" /><path
         d="m 1232.8757,-400.27686 v 10.00042 h 15.0001 v 49.55669 c 1.6514,0.28703 3.324,0.43519 5.0002,0.44286 1.676,-0.008 3.3484,-0.1555 4.9997,-0.44235 v -48.91693 c 2.6706,0.68811 5.1709,1.92244 7.3442,3.62562 l 6.1816,-7.85585 c -3.938,-3.09428 -8.588,-5.15351 -13.5258,-5.98982 -1.6519,-0.27957 -3.3244,-0.42028 -4.9997,-0.42064 z"
         style="fill:#121212;fill-opacity:1;stroke:#000000;stroke-width:0;stroke-dasharray:none"
         id="path237" /><path
         d="m 912.78408,-399.39888 c -1.40148,2.35268 -4.46414,8.5606 -4.90823,18.50998 v 40.61199 h 9.99991 v -40.04562 c 0.0306,-6.27709 2.03541,-11.23592 3.70003,-14.27303 z"
         style="fill:#121212;fill-opacity:1;stroke:#000000;stroke-width:0;stroke-dasharray:none"
         id="path250" /></g></g></svg>
